<?xml version="1.0" encoding="UTF-8" standalone="no"?>
<svg
   version="1.1"
   id="svg2"
   xml:space="preserve"
   width="818.64233"
   height="1122.5197"
   viewBox="0 0 818.64235 1122.5197"
   sodipodi:docname="logo-large.svg"
   inkscape:version="1.1.1 (3bf5ae0d25, 2021-09-20)"
   xmlns:inkscape="http://www.inkscape.org/namespaces/inkscape"
   xmlns:sodipodi="http://sodipodi.sourceforge.net/DTD/sodipodi-0.dtd"
   xmlns:xlink="http://www.w3.org/1999/xlink"
   xmlns="http://www.w3.org/2000/svg"
   xmlns:svg="http://www.w3.org/2000/svg"
   xmlns:rdf="http://www.w3.org/1999/02/22-rdf-syntax-ns#"
   xmlns:cc="http://creativecommons.org/ns#"
   xmlns:dc="http://purl.org/dc/elements/1.1/"><metadata
     id="metadata8"><rdf:RDF><cc:Work
         rdf:about=""><dc:format>image/svg+xml</dc:format><dc:type
           rdf:resource="http://purl.org/dc/dcmitype/StillImage" /></cc:Work></rdf:RDF></metadata><defs
     id="defs6"><linearGradient
       inkscape:collect="always"
       id="linearGradient2884"><stop
         style="stop-color:#96d9ad;stop-opacity:1"
         offset="0"
         id="stop2880" /><stop
         style="stop-color:#07b2d9;stop-opacity:1"
         offset="1"
         id="stop2882" /></linearGradient><linearGradient
       inkscape:collect="always"
       xlink:href="#linearGradient2884"
       id="linearGradient2886"
       x1="7304.3315"
       y1="5316.9702"
       x2="9050.1465"
       y2="7631.3457"
       gradientUnits="userSpaceOnUse"
       gradientTransform="matrix(3.6560032,0,0,3.6560032,-20831.052,-15265.74)" /></defs><sodipodi:namedview
     pagecolor="#ffffff"
     bordercolor="#666666"
     borderopacity="1"
     objecttolerance="10"
     gridtolerance="10"
     guidetolerance="10"
     inkscape:pageopacity="0"
     inkscape:pageshadow="2"
     inkscape:window-width="1920"
     inkscape:window-height="1027"
     id="namedview4"
     inkscape:pagecheckerboard="0"
     showgrid="false"
     inkscape:zoom="0.39642264"
     inkscape:cx="597.84678"
     inkscape:cy="750.46168"
     inkscape:window-x="1358"
     inkscape:window-y="-8"
     inkscape:window-maximized="1"
     inkscape:current-layer="g12" /><g
     id="g10"
     inkscape:groupmode="layer"
     inkscape:label="ink_ext_XXXXXX"
     transform="matrix(1.3333333,0,0,-1.3333333,-593.95936,1483.2989)"><g
       id="g12"
       transform="scale(0.1)"><path
         d="m 9706.9451,9334.7636 c -0.365,-1.824 -0.757,-4.0214 -0.757,-6.2159 -0.73,0 -1.46,-0.3648 -2.217,-0.7296 1.178,2.1889 1.852,4.7538 2.997,6.9484 z m 606.3289,-1321.5329 -5368.2251,-124.8763 -26.4078,241.3899 5416.6629,84.8204 z m 281.239,721.5826 c 0,241.6617 -133.077,451.8816 -329.771,561.5602 -0.729,154.613 -126.132,279.3194 -280.4139,279.3194 -106.316,0 -198.413,-58.8622 -245.977,-145.8743 12.468,48.9896 18.645,100.5413 18.645,153.1875 0,354.2672 -287.691,641.9939 -642.359,641.9939 -39.12,0 -77.508,-3.656 -114.761,-10.237 37.253,81.492 58.458,171.833 58.458,267.252 0,355 -287.727,642.727 -642.724,642.727 -262.465,0 -488.442,-157.938 -587.521,-383.879 -27.053,8.407 -55.571,13.161 -85.55,13.161 -154.613,0 -280.4142,-125.402 -280.4142,-280.416 0,-74.583 29.6485,-142.95 77.5072,-193.037 -58.1326,-7.678 -113.3381,-23.032 -164.887,-45.701 -88.4377,248.939 -326.0779,426.984 -605.0325,426.984 -354.9969,0 -642.7239,-287.323 -642.7239,-642.322 0,-25.2263 1.796,-50.8169 4.7146,-75.6779 -58.8622,31.4417 -122.4754,53.7434 -190.1128,65.4399 9.8726,28.518 14.9548,58.862 14.9548,90.304 0,155.014 -125.3293,280.417 -280.0125,280.417 -155.0144,0 -280.4167,-125.403 -280.4167,-280.417 0,-73.486 28.15,-140.023 73.8506,-189.7451 -170.7353,-115.5297 -282.9732,-310.7611 -282.9732,-532.3156 0,-8.4077 0,-16.487 0.7296,-24.861 -34.3294,6.2159 -69.8291,9.1401 -105.9855,9.1401 -346.6257,0 -627.0423,-280.7815 -627.0423,-627.0031 0,-289.5567 196.6935,-533.4129 463.9458,-605.069 l 26.4078,-241.3899 566.9617,-5182.5102 h 4220.5285 l 580.7349,5307.3865 22.03,201.334 h -6.581 c 160.863,116.5877 265.79,306.3722 265.79,520.2486"
         style="fill:url(#linearGradient2886);fill-opacity:1;fill-rule:nonzero;stroke:none;stroke-width:3.65599"
         id="path72"
         sodipodi:nodetypes="ccccccccccccscsscsscssccssccssscscsscccccccc" /></g></g></svg>
